<?xml version="1.0" encoding="utf-8"?>
<!-- Generator: Adobe Illustrator 22.0.0, SVG Export Plug-In . SVG Version: 6.00 Build 0)  -->
<svg version="1.1" id="Layer_1" xmlns="http://www.w3.org/2000/svg" xmlns:xlink="http://www.w3.org/1999/xlink" x="0px" y="0px"
	 viewBox="0 0 800 4764.1" style="enable-background:new 0 0 800 4764.1;" xml:space="preserve">
<style type="text/css">
	.st0{fill:none;}
	.st1{fill:#FFCC33;}
	.st2{font-family:'Roboto-Bold';}
	.st3{font-size:19.6598px;}
	.st4{font-size:19.0782px;}
	.st5{font-size:28.4234px;}
	.st6{font-size:33.1606px;}
	.st7{font-size:28px;}
	.st8{font-size:20.6411px;}
	.st9{font-size:20px;}
	.st10{font-size:21.0432px;}
	.st11{font-size:25.2125px;}
	.st12{font-size:24.697px;}
	.st13{font-size:50px;}
	.st14{font-size:37px;}
	.st15{font-size:22px;}
	.st16{fill:none;stroke:#000000;}
	.st17{font-size:6.1446px;}
	.st18{fill:#1F77B4;}
	.st19{fill:#FF7F0E;}
	.st20{fill:#FFFFFF;}
	.st21{font-size:7.3736px;}
	.st22{fill:#2CA02C;}
	.st23{fill:#D62728;}
	.st24{fill:#9467BD;}
	.st25{fill:#8C564B;}
	.st26{fill:#E377C2;}
	.st27{fill:#7F7F7F;}
	.st28{font-size:64px;}
	.st29{font-size:33px;}
	.st30{font-size:46px;}
	.st31{font-size:25px;}
	.st32{letter-spacing:25;}
	.st33{letter-spacing:15;}
	.st34{letter-spacing:29;}
	.st35{letter-spacing:-5;}
	.st36{letter-spacing:-4;}
	.st37{fill:none;stroke:#000000;stroke-width:4;stroke-miterlimit:10;}
	.st38{font-size:56.061px;}
	.st39{font-size:44.8488px;}
	.st40{font-size:70px;}
	.st41{fill:none;stroke:#000000;stroke-width:2;stroke-miterlimit:10;}
</style>
<g>
	<path d="M477.9,2639.3c7.3,0,13.1,5.9,13.1,13.1s-5.9,13.1-13.1,13.1c-7.3,0-13.1-5.9-13.1-13.1S470.6,2639.3,477.9,2639.3
		 M487.8,2668.9h-2.3c-4.7,2.1-10.2,2.2-15.1,0H468c-5.4,0-9.9,4.4-9.9,9.9v27.9c0,2.7,2.2,4.9,4.9,4.9h3.3v27.9
		c0,2.7,2.2,4.9,4.9,4.9h13.1c2.7,0,4.9-2.2,4.9-4.9v-27.9h3.3c2.7,0,4.9-2.2,4.9-4.9v-27.9C497.6,2673.3,493.2,2668.9,487.8,2668.9
		z"/>
	<path d="M245.9,2636.5c7.5,0,13.5,6.1,13.5,13.5s-6.1,13.5-13.5,13.5s-13.5-6.1-13.5-13.5S238.4,2636.5,245.9,2636.5 M271.2,2711.5
		l-10.2-40.6c-0.6-2.3-2.6-3.8-4.9-3.8h-2.4c-4.8,2.2-10.5,2.3-15.5,0h-2.4c-2.3,0-4.4,1.6-4.9,3.8l-10.2,40.6
		c-0.8,3.2,1.6,6.3,4.9,6.3h11.9v22c0,2.8,2.3,5.1,5.1,5.1h6.8c2.8,0,5.1-2.3,5.1-5.1v-22h11.9
		C269.5,2717.8,272,2714.7,271.2,2711.5L271.2,2711.5z"/>
	<rect x="284.7" y="2686.4" class="st0" width="66.8" height="19.2"/>
	<text transform="matrix(1 0 0 1 284.707 2701.3672)" class="st1 st2 st3">59.70%</text>
	<rect x="514.7" y="2687.7" class="st0" width="64.8" height="18.6"/>
	<text transform="matrix(1 0 0 1 514.6846 2702.2139)" class="st1 st2 st4">40.30%</text>
</g>
<rect x="133.6" y="655.4" class="st0" width="532.9" height="93.6"/>
<text transform="matrix(1 0 0 1 229.5735 677.0891)" class="st2 st5">Named after the humanist </text>
<text transform="matrix(1 0 0 1 233.1263 722.804)" class="st1 st2 st6">Erasmus</text>
<text transform="matrix(1 0 0 1 363.1634 722.804)" class="st2 st6"> </text>
<text transform="matrix(1 0 0 1 371.4534 722.804)" class="st2 st5">van Rotterdam</text>
<text transform="matrix(1.0307 0 0 1 235.9558 1314.9086)" class="st2 st7">student mobility program</text>
<rect x="75.5" y="856.2" class="st0" width="649" height="122.8"/>
<text transform="matrix(1 0 0 1 154.8925 877.9301)" class="st2 st5">States of the European Economic Area</text>
<text transform="matrix(1 0 0 1 313.4711 923.8813)" class="st1 st2 st5">+ </text>
<text transform="matrix(1 0 0 1 336.0912 923.8813)" class="st2 st5">Switzerland </text>
<text transform="matrix(1 0 0 1 345.4477 969.8325)" class="st1 st2 st5">+ </text>
<text transform="matrix(1 0 0 1 368.0678 969.8325)" class="st2 st5">Turkey</text>
<g>
	<path d="M221.7,3544h-3.6c-0.6,0-1.1-0.5-1.1-1.1v-3.6c0-0.6,0.5-1.1,1.1-1.1h3.6c0.6,0,1.1,0.5,1.1,1.1v3.6
		C222.8,3543.5,222.3,3544,221.7,3544z M231.3,3542.9v-3.6c0-0.6-0.5-1.1-1.1-1.1h-3.6c-0.6,0-1.1,0.5-1.1,1.1v3.6
		c0,0.6,0.5,1.1,1.1,1.1h3.6C230.8,3544,231.3,3543.5,231.3,3542.9z M239.8,3542.9v-3.6c0-0.6-0.5-1.1-1.1-1.1h-3.6
		c-0.6,0-1.1,0.5-1.1,1.1v3.6c0,0.6,0.5,1.1,1.1,1.1h3.6C239.4,3544,239.8,3543.5,239.8,3542.9z M231.3,3551.4v-3.6
		c0-0.6-0.5-1.1-1.1-1.1h-3.6c-0.6,0-1.1,0.5-1.1,1.1v3.6c0,0.6,0.5,1.1,1.1,1.1h3.6C230.8,3552.5,231.3,3552,231.3,3551.4z
		 M222.8,3551.4v-3.6c0-0.6-0.5-1.1-1.1-1.1h-3.6c-0.6,0-1.1,0.5-1.1,1.1v3.6c0,0.6,0.5,1.1,1.1,1.1h3.6
		C222.3,3552.5,222.8,3552,222.8,3551.4z M239.8,3551.4v-3.6c0-0.6-0.5-1.1-1.1-1.1h-3.6c-0.6,0-1.1,0.5-1.1,1.1v3.6
		c0,0.6,0.5,1.1,1.1,1.1h3.6C239.4,3552.5,239.8,3552,239.8,3551.4z M248.4,3528.3v31.3c0,2.4-1.9,4.3-4.3,4.3h-31.3
		c-2.4,0-4.3-1.9-4.3-4.3v-31.3c0-2.4,1.9-4.3,4.3-4.3h4.3v-4.6c0-0.6,0.5-1.1,1.1-1.1h3.6c0.6,0,1.1,0.5,1.1,1.1v4.6h11.4v-4.6
		c0-0.6,0.5-1.1,1.1-1.1h3.6c0.6,0,1.1,0.5,1.1,1.1v4.6h4.3C246.5,3524.1,248.4,3526,248.4,3528.3z M244.1,3559.1v-26.5h-31.3v26.5
		c0,0.3,0.2,0.5,0.5,0.5h30.2C243.9,3559.6,244.1,3559.4,244.1,3559.1z"/>
	<rect x="253.6" y="3521.1" class="st0" width="50.3" height="20.1"/>
	<text transform="matrix(1 0 0 1 253.6064 3536.8589)" class="st2 st8">JUL.</text>
	<rect x="252" y="3546" class="st0" width="50.3" height="20.1"/>
	<text transform="matrix(1 0 0 1 252.0185 3561.7329)" class="st2 st8">DEC.</text>
	<rect x="305.9" y="3535.8" class="st0" width="70.1" height="20.1"/>
	<text transform="matrix(1 0 0 1 305.8861 3551.561)" class="st1 st2 st8">25.36%</text>
	<path d="M437,3546.5h-3.6c-0.6,0-1.1-0.5-1.1-1.1v-3.6c0-0.6,0.5-1.1,1.1-1.1h3.6c0.6,0,1.1,0.5,1.1,1.1v3.6
		C438,3546,437.6,3546.5,437,3546.5z M446.7,3545.4v-3.6c0-0.6-0.5-1.1-1.1-1.1H442c-0.6,0-1.1,0.5-1.1,1.1v3.6
		c0,0.6,0.5,1.1,1.1,1.1h3.6C446.3,3546.5,446.7,3546,446.7,3545.4z M455.4,3545.4v-3.6c0-0.6-0.5-1.1-1.1-1.1h-3.6
		c-0.6,0-1.1,0.5-1.1,1.1v3.6c0,0.6,0.5,1.1,1.1,1.1h3.6C455,3546.5,455.4,3546,455.4,3545.4z M446.7,3554.1v-3.6
		c0-0.6-0.5-1.1-1.1-1.1H442c-0.6,0-1.1,0.5-1.1,1.1v3.6c0,0.6,0.5,1.1,1.1,1.1h3.6C446.3,3555.2,446.7,3554.7,446.7,3554.1z
		 M438,3554.1v-3.6c0-0.6-0.5-1.1-1.1-1.1h-3.6c-0.6,0-1.1,0.5-1.1,1.1v3.6c0,0.6,0.5,1.1,1.1,1.1h3.6
		C437.6,3555.2,438,3554.7,438,3554.1z M455.4,3554.1v-3.6c0-0.6-0.5-1.1-1.1-1.1h-3.6c-0.6,0-1.1,0.5-1.1,1.1v3.6
		c0,0.6,0.5,1.1,1.1,1.1h3.6C455,3555.2,455.4,3554.7,455.4,3554.1z M464.1,3530.6v31.9c0,2.4-1.9,4.4-4.4,4.4h-31.8
		c-2.4,0-4.4-1.9-4.4-4.4v-31.9c0-2.4,1.9-4.4,4.4-4.4h4.4v-4.7c0-0.6,0.5-1.1,1.1-1.1h3.6c0.6,0,1.1,0.5,1.1,1.1v4.7h11.6v-4.7
		c0-0.6,0.5-1.1,1.1-1.1h3.6c0.6,0,1.1,0.5,1.1,1.1v4.7h4.4C462.2,3526.2,464.1,3528.1,464.1,3530.6z M459.8,3561.9v-27h-31.9v27
		c0,0.3,0.2,0.5,0.5,0.5h30.8C459.5,3562.5,459.8,3562.2,459.8,3561.9z"/>
	<rect x="469.5" y="3525.3" class="st0" width="51.3" height="20.5"/>
	<text transform="matrix(1 0 0 1 469.542 3540.4927)" class="st2 st9">DEC.</text>
	<rect x="467.9" y="3550.6" class="st0" width="51.3" height="20.5"/>
	<text transform="matrix(1 0 0 1 467.9228 3565.853)" class="st2 st9">JUL.</text>
	<rect x="519.8" y="3535.2" class="st0" width="71.5" height="20.5"/>
	<text transform="matrix(1 0 0 1 519.8006 3551.2388)" class="st1 st2 st10">29.04%</text>
	<path d="M308.4,3660.9h-4.3c-0.7,0-1.3-0.6-1.3-1.3v-4.3c0-0.7,0.6-1.3,1.3-1.3h4.3c0.7,0,1.3,0.6,1.3,1.3v4.3
		C309.7,3660.3,309.1,3660.9,308.4,3660.9z M320.1,3659.6v-4.3c0-0.7-0.6-1.3-1.3-1.3h-4.3c-0.7,0-1.3,0.6-1.3,1.3v4.3
		c0,0.7,0.6,1.3,1.3,1.3h4.3C319.5,3660.9,320.1,3660.3,320.1,3659.6z M330.6,3659.6v-4.3c0-0.7-0.6-1.3-1.3-1.3h-4.4
		c-0.7,0-1.3,0.6-1.3,1.3v4.3c0,0.7,0.6,1.3,1.3,1.3h4.3C330,3660.9,330.6,3660.3,330.6,3659.6z M320.1,3670v-4.3
		c0-0.7-0.6-1.3-1.3-1.3h-4.3c-0.7,0-1.3,0.6-1.3,1.3v4.3c0,0.7,0.6,1.3,1.3,1.3h4.3C319.5,3671.3,320.1,3670.7,320.1,3670z
		 M309.7,3670v-4.3c0-0.7-0.6-1.3-1.3-1.3h-4.3c-0.7,0-1.3,0.6-1.3,1.3v4.3c0,0.7,0.6,1.3,1.3,1.3h4.3
		C309.1,3671.3,309.7,3670.7,309.7,3670z M330.6,3670v-4.3c0-0.7-0.6-1.3-1.3-1.3h-4.4c-0.7,0-1.3,0.6-1.3,1.3v4.3
		c0,0.7,0.6,1.3,1.3,1.3h4.3C330,3671.3,330.6,3670.7,330.6,3670z M341,3641.8v38.2c0,2.9-2.3,5.2-5.2,5.2h-38.2
		c-2.9,0-5.2-2.3-5.2-5.2v-38.2c0-2.9,2.3-5.2,5.2-5.2h5.2v-5.6c0-0.7,0.6-1.3,1.3-1.3h4.3c0.7,0,1.3,0.6,1.3,1.3v5.6h13.9v-5.6
		c0-0.7,0.6-1.3,1.3-1.3h4.3c0.7,0,1.3,0.6,1.3,1.3v5.6h5.2C338.6,3636.6,341,3638.9,341,3641.8z M335.8,3679.3v-32.4h-38.2v32.4
		c0,0.4,0.3,0.7,0.7,0.7h36.9C335.5,3680,335.8,3679.7,335.8,3679.3z"/>
	<rect x="441.1" y="3648.6" class="st0" width="85.7" height="24.6"/>
	<text transform="matrix(1 0 0 1 441.1678 3667.7603)" class="st1 st2 st11">45.60%</text>
	<rect x="354.1" y="3649.2" class="st0" width="69.2" height="24.1"/>
	<text transform="matrix(1 0 0 1 354.167 3668.0464)" class="st2 st12">YEAR</text>
</g>
<text transform="matrix(1.005 0 0 1 183.7183 1272.389)" class="st1 st2 st13">MOST SUCESSFUL</text>
<text transform="matrix(1.005 0 0 1 304.7278 1212.2445)" class="st2 st7">It’s the World’s </text>
<text transform="matrix(1 9.400000e-04 -9.400000e-04 1 283.1449 1603.6914)" class="st2 st14">Established in</text>
<g>
	<path d="M227.4,3051c0,10,0,19.9,0,29.9c0,1-0.3,1.2-1.2,1.2c-2.4,0-4.9,0-7.3,0c-0.8,0-1.1-0.2-1.1-1.1c0-14.3,0-28.7,0-43
		c0-0.8,0-1.6,0-2.4c0-0.9-0.3-1.1-1.2-1.1c-1.8,0-3.5,0-5.3,0c-0.8,0-1.1-0.2-1.1-1.1c0.1-1.6,0-3.2,0-4.8c0-0.6,0.2-0.8,0.9-0.9
		c2.1-0.1,4.1-0.5,5.9-1.7c1.7-1.2,2.7-2.9,3.4-4.9c0.3-1,0.8-1.4,1.9-1.3c1.3,0.1,2.7,0.1,4,0c0.8,0,1,0.3,1,1c0,5.4,0,10.8,0,16.3
		C227.4,3041.8,227.4,3046.4,227.4,3051z"/>
	<path d="M432.8,3229.6c-2.9,0-5.7,0-8.5,0c-0.2-4.3-0.2-8.5,2.2-12.2c2.1-3.5,5.4-5,9.3-5.4c2.5-0.2,4.9-0.2,7.3,0.6
		c4.2,1.3,6.7,4.2,7.8,8.3c1,3.9,1,8,0.2,11.9c-0.7,3.3-2.5,5.7-5.8,7.4c0.1,0,0.3,0,0.4,0.1c3.3,1.7,5.1,4.5,5.6,8
		c0.6,4.6,0.8,9.3-0.3,13.8c-1.4,5.8-5.5,9-11.4,9.4c-2.4,0.1-4.8,0-7.2-0.8c-4.4-1.5-6.9-4.8-7.6-9.3c-0.5-3-0.5-6.1-0.7-9.3
		c3.1,0,5.9,0,8.8,0c0,1.6,0,3.1,0,4.6c0,1.1,0.1,2.3,0.4,3.3c0.5,2.1,2.1,3.1,4.4,3.2c2.3,0,3.7-0.9,4.4-3c0.1-0.4,0.3-0.8,0.3-1.2
		c0-3.4,0.2-6.8-0.1-10.2c-0.2-2.7-2.2-4.2-5-4.3c-1.2,0-2.4,0-3.6,0c0-2.8,0-5.5,0-8.3c1.2,0,2.4,0,3.5,0c3.6-0.1,5.4-1.8,5.4-5.4
		c0-2.3,0.1-4.6-0.2-6.8c-0.5-3.4-3.6-4.9-6.7-3.5c-1.6,0.7-2.2,2.1-2.4,3.7c-0.1,1.3-0.1,2.7-0.2,4.1
		C432.8,3228.7,432.8,3229.1,432.8,3229.6z"/>
	<path d="M328.7,3155.9c1.1-1.8,2.4-3.6,3.8-5.3c2.4-2.9,5.1-5.7,7.4-8.7c4.9-6.3,7.2-13.4,5.7-21.4c-0.8-4.4-3.1-7.7-7.5-9.4
		c-2.5-0.9-5.1-1-7.7-0.8c-5.7,0.4-9.8,3.7-11.2,9.3c-0.9,3.6-0.6,7.2-0.6,10.8c0,0.1,0.1,0.1,0.1,0.2c2.8,0,5.6,0,8.5,0
		c0-1.3,0-2.6,0-3.9c0.1-1.6,0-3.2,0.3-4.8c0.5-2.3,2-3.3,4.4-3.3c2.5,0,3.8,1,4.4,3.3s0.5,4.6,0.1,6.8c-0.7,4.6-3.1,8.3-6,11.7
		c-2.2,2.6-4.6,5.1-6.8,7.7c-2.4,2.9-4.4,6.2-4.8,10.1c-0.4,3.6-0.2,7.3-0.3,10.9l0.1,0.1c1.4,0,2.7,0,4.1,0c6.6,0,13.2,0,19.8,0
		c0.8,0,1.6,0,2.5,0c0-2.8,0-5.5,0-8.2c-5.8,0-11.5,0-17.3,0C327.4,3159.2,327.8,3157.5,328.7,3155.9z"/>
	<text transform="matrix(1 0 0 1 231.6157 3055.3828)" class="st2 st9">Cycle</text>
	<text transform="matrix(1 0 0 1 231.9985 3035.3828)" class="st2 st15" style="text-decoration: underline;">ST</text>
	<text transform="matrix(1 0 0 1 350.6157 3144.3828)" class="st2 st9">Cycle</text>
	<text transform="matrix(1 0 0 1 351.2583 3126.3828)" class="st2 st15" style="text-decoration: underline;">ND</text>
	<text transform="matrix(1 0 0 1 456.6157 3248.3828)" class="st2 st9">Cycle</text>
	<text transform="matrix(1 0 0 1 455.7739 3228.3828)" class="st2 st15" style="text-decoration: underline;">RD</text>
	<rect x="299.1" y="3041.4" class="st0" width="66.8" height="19.2"/>
	<text transform="matrix(1 0 0 1 299.0864 3056.4102)" class="st1 st2 st3">70.84%</text>
	<rect x="414.1" y="3130.4" class="st0" width="66.8" height="19.2"/>
	<text transform="matrix(1 0 0 1 414.0864 3145.4102)" class="st1 st2 st3">28.49%</text>
	<rect x="523.1" y="3232.4" class="st0" width="66.8" height="19.2"/>
	<text transform="matrix(1 0 0 1 523.0864 3247.4102)" class="st1 st2 st3">0.67%</text>
</g>
<g>
	<g transform="translate(0,345)">
		<path class="st16" d="M202.8,3815.7v-3.4h442.4v3.4"/>
		<g transform="translate(0.5,0)">
			<line class="st16" x1="202.3" y1="3812" x2="202.3" y2="3815.7"/>
			<text transform="matrix(1 0 0 1 200.5399 3821.9771)" class="st2 st17">0</text>
		</g>
		<g transform="translate(84.56010297362614,0)">
			<line class="st16" x1="169.9" y1="3812" x2="169.9" y2="3815.7"/>
			<text transform="matrix(1 0 0 1 160.4441 3821.9771)" class="st2 st17">10,000</text>
		</g>
		<g transform="translate(168.6202059472523,0)">
			<line class="st16" x1="137.5" y1="3812" x2="137.5" y2="3815.7"/>
			<text transform="matrix(1 0 0 1 128.0354 3821.9771)" class="st2 st17">20,000</text>
		</g>
		<g transform="translate(252.68030892087845,0)">
			<line class="st16" x1="105.1" y1="3812" x2="105.1" y2="3815.7"/>
			<text transform="matrix(1 0 0 1 95.6271 3821.9771)" class="st2 st17">30,000</text>
		</g>
		<g transform="translate(336.7404118945046,0)">
			<line class="st16" x1="72.7" y1="3812" x2="72.7" y2="3815.7"/>
			<text transform="matrix(1 0 0 1 63.2179 3821.9771)" class="st2 st17">40,000</text>
		</g>
		<g transform="translate(420.8005148681307,0)">
			<line class="st16" x1="40.2" y1="3812" x2="40.2" y2="3815.7"/>
			<text transform="matrix(1 0 0 1 30.8097 3821.9771)" class="st2 st17">50,000</text>
		</g>
		<g transform="translate(504.8606178417569,0)">
			<line class="st16" x1="7.8" y1="3812" x2="7.8" y2="3815.7"/>
			<text transform="matrix(1 0 0 1 -1.5981 3821.9771)" class="st2 st17">60,000</text>
		</g>
		<g transform="translate(588.920720815383,0)">
			<line class="st16" x1="-24.6" y1="3812" x2="-24.6" y2="3815.7"/>
			<text transform="matrix(1 0 0 1 -34.0058 3821.9771)" class="st2 st17">70,000</text>
		</g>
		<g transform="translate(672.9808237890092,0)">
			<line class="st16" x1="-57" y1="3812" x2="-57" y2="3815.7"/>
			<text transform="matrix(1 0 0 1 -66.4136 3821.9771)" class="st2 st17">80,000</text>
		</g>
	</g>
	<g>
		<path class="st16" d="M197.6,3945.4h5.2v212h-5.2"/>
		<g transform="translate(0,26.5)">
			<line class="st16" x1="202.5" y1="3934.8" x2="197.6" y2="3934.8"/>
			<text transform="matrix(1 0 0 1 152.307 3936.8433)" class="st2 st17">Social Sciences</text>
		</g>
		<g transform="translate(0,68.5)">
			<line class="st16" x1="202.5" y1="3918.6" x2="197.6" y2="3918.6"/>
			<text transform="matrix(1 0 0 1 164.9466 3920.6509)" class="st2 st17">Humanities</text>
		</g>
		<g transform="translate(0,110.5)">
			<line class="st16" x1="202.5" y1="3902.5" x2="197.6" y2="3902.5"/>
			<text transform="matrix(1 0 0 1 162.8861 3904.4585)" class="st2 st17">Engineering</text>
		</g>
		<g transform="translate(0,152.5)">
			<line class="st16" x1="202.5" y1="3886.3" x2="197.6" y2="3886.3"/>
			<text transform="matrix(1 0 0 1 170.7503 3888.2661)" class="st2 st17">Sciences</text>
		</g>
		<g transform="translate(0,194.5)">
			<line class="st16" x1="202.5" y1="3870.1" x2="197.6" y2="3870.1"/>
			<text transform="matrix(1 0 0 1 177.9207 3872.0737)" class="st2 st17">Health</text>
		</g>
		<g transform="translate(0,236.5)">
			<line class="st16" x1="202.5" y1="3853.9" x2="197.6" y2="3853.9"/>
			<text transform="matrix(1 0 0 1 168.3524 3855.8813)" class="st2 st17">Education</text>
		</g>
		<g transform="translate(0,278.5)">
			<line class="st16" x1="202.5" y1="3837.7" x2="197.6" y2="3837.7"/>
			<text transform="matrix(1 0 0 1 172.1214 3839.689)" class="st2 st17">Services</text>
		</g>
		<g transform="translate(0,320.5)">
			<line class="st16" x1="202.5" y1="3821.5" x2="197.6" y2="3821.5"/>
			<text transform="matrix(1 0 0 1 166.3123 3823.4946)" class="st2 st17">Agriculture</text>
		</g>
	</g>
	<rect x="205.2" y="3949.4" class="st18" width="442.4" height="23.3"/>
	<rect x="205.2" y="3975.2" class="st19" width="240.5" height="23.3"/>
	<text transform="matrix(1 0 0 1 420.785 3989.1509)" class="st20 st2 st21">46 555</text>
	<rect x="205.2" y="4001" class="st22" width="166.5" height="23.3"/>
	<text transform="matrix(1 0 0 1 346.949 4014.5278)" class="st20 st2 st21">32 240</text>
	<rect x="205.2" y="4026.8" class="st23" width="81.1" height="23.3"/>
	<text transform="matrix(1 0 0 1 260.8195 4040.7661)" class="st20 st2 st21">15 704</text>
	<rect x="205.2" y="4052.6" class="st24" width="66.4" height="23.3"/>
	<text transform="matrix(1 0 0 1 245.764 4066.5737)" class="st20 st2 st21">12 852</text>
	<rect x="205.2" y="4078.4" class="st25" width="37.4" height="23.3"/>
	<text transform="matrix(1 0 0 1 221.451 4092.3813)" class="st20 st2 st21">7 236</text>
	<rect x="205.2" y="4104.2" class="st26" width="28.6" height="23.3"/>
	<text transform="matrix(1 0 0 1 213.3289 4118.189)" class="st20 st2 st21">5 545</text>
	<rect x="205.2" y="4130" class="st27" width="18.7" height="23.3"/>
	<text transform="matrix(1 0 0 1 206.4363 4144.3032)" class="st20 st2 st21">3145</text>
</g>
<text transform="matrix(1 9.400000e-04 -9.400000e-04 1 326.7882 1684.7181)" class="st1 st2 st28">1987</text>
<text transform="matrix(1 0 0 1 216.6898 4490.0469)" class="st2 st29">Let´s</text>
<text transform="matrix(1 0 0 1 292.2898 4490.0469)" class="st1 st2 st29"> </text>
<text transform="matrix(1 0 0 1 300.4898 4490.0469)" class="st1 st2 st30">explore </text>
<text transform="matrix(1 0 0 1 464.4898 4490.0469)" class="st2 st29">the data</text>
<rect x="245" y="2191" class="st0" width="334" height="152.5"/>
<text transform="matrix(1 0 0 1 277.3322 2210.0244)" class="st1 st2 st31">272 497</text>
<text transform="matrix(1 0 0 1 369.6321 2210.0244)" class="st2 st31"> </text>
<text transform="matrix(1 0 0 1 375.8322 2210.0244)" class="st2 st31 st32"> </text>
<text transform="matrix(1 0 0 1 407.3322 2210.0244)" class="st2 st31">students</text>
<text transform="matrix(1 0 0 1 277.3322 2270.0244)" class="st1 st2 st31 st33"> </text>
<text transform="matrix(1 0 0 1 299.3322 2270.0244)" class="st1 st2 st31 st34"> </text>
<text transform="matrix(1 0 0 1 335.3322 2270.0244)" class="st1 st2 st31">34</text>
<text transform="matrix(1 0 0 1 364.0322 2270.0244)" class="st2 st31"> </text>
<text transform="matrix(1 0 0 1 370.2322 2270.0244)" class="st2 st31 st35"> </text>
<text transform="matrix(1 0 0 1 371.3322 2270.0244)" class="st2 st31 st34"> </text>
<text transform="matrix(1 0 0 1 407.3322 2270.0244)" class="st2 st31">countries</text>
<text transform="matrix(1 0 0 1 277.3322 2330.0244)" class="st1 st2 st31 st33"> </text>
<text transform="matrix(1 0 0 1 299.3322 2330.0244)" class="st1 st2 st31"> 3 720</text>
<text transform="matrix(1 0 0 1 369.1321 2330.0244)" class="st1 st2 st31 st36"> </text>
<text transform="matrix(1 0 0 1 371.3322 2330.0244)" class="st1 st2 st31 st34"> </text>
<text transform="matrix(1 0 0 1 407.3322 2330.0244)" class="st2 st31">institutions</text>
<line class="st37" x1="388.8" y1="2184.9" x2="388.8" y2="2337.9"/>
<text transform="matrix(1 0 0 1 248.4223 1863.8214)" class="st2 st14">of students later...</text>
<text transform="matrix(1 0 0 1 231.7434 1812.7238)" class="st1 st2 st28">3.3 millions</text>
<g id="Layer_1_1_">
	<text transform="matrix(1 0 0 1 421.5152 493.8071)" class="st1 st2 st38">S</text>
	<text transform="matrix(1 0 0 1 457.1148 493.8071)" class="st2 st39">tudents</text>
	<text transform="matrix(1 0 0 1 385.2183 433.5415)" class="st1 st2 st38">U</text>
	<text transform="matrix(1 0 0 1 423.7603 433.5415)" class="st2 st39">niversity</text>
	<text transform="matrix(1 0 0 1 335.8033 376.0791)" class="st1 st2 st38">M</text>
	<text transform="matrix(1 0 0 1 384.7164 376.0791)" class="st2 st39">obility of</text>
	<text transform="matrix(1 0 0 1 298.8599 315.8135)" class="st1 st2 st38">S</text>
	<text transform="matrix(1 0 0 1 334.459 315.8135)" class="st2 st39">cheme for the</text>
	<text transform="matrix(1 0 0 1 259.8692 256.9497)" class="st1 st2 st38">A</text>
	<text transform="matrix(1 0 0 1 295.7486 256.9497)" class="st2 st39">ction</text>
	<text transform="matrix(1 0 0 1 221.9542 199.4868)" class="st1 st2 st38">R</text>
	<text transform="matrix(1 0 0 1 258.9547 199.4868)" class="st2 st39">egion</text>
	<text transform="matrix(1 0 0 1 186.6368 143.4258)" class="st1 st2 st38">E</text>
	<text transform="matrix(1 0 0 1 218.8717 143.4258)" class="st2 st39">uropean </text>
</g>
<text transform="matrix(1 9.400000e-04 -9.400000e-04 1 369.412 1744.6913)" class="st2 st14">and</text>
<text transform="matrix(1.005 0 0 1 322.9544 833.474)" class="st2 st7">Participants</text>
<text transform="matrix(1 0 0 1 208.235 2082.4243)"><tspan x="0" y="0" class="st2 st40">20</tspan><tspan x="80.3" y="0" class="st1 st2 st40">13</tspan><tspan x="160.6" y="0" class="st2 st40"> - 20</tspan><tspan x="303.2" y="0" class="st1 st2 st40">14</tspan></text>
<text transform="matrix(1 9.400000e-04 -9.400000e-04 1 340.7012 2596.0291)" class="st2 st14">Gender</text>
<text transform="matrix(1 9.400000e-04 -9.400000e-04 1 270.0513 2964.0181)" class="st2 st14">Academic cycle</text>
<text transform="matrix(1 9.400000e-04 -9.400000e-04 1 354.1353 3467.1633)" class="st2 st14">Term</text>
<text transform="matrix(1 9.400000e-04 -9.400000e-04 1 263.4624 3905.9087)" class="st2 st14">Domain of study</text>
<rect x="245" y="2170.4" class="st41" width="309.9" height="182"/>
</svg>
