<?xml version="1.0" encoding="utf-8"?>
<!-- Generator: Adobe Illustrator 22.0.0, SVG Export Plug-In . SVG Version: 6.00 Build 0)  -->
<svg version="1.1" id="Layer_1" xmlns="http://www.w3.org/2000/svg" xmlns:xlink="http://www.w3.org/1999/xlink" x="0px" y="0px"
	 viewBox="0 0 800 800" style="enable-background:new 0 0 800 800;" xml:space="preserve">
<style type="text/css">
	.st0{fill:#FFFFFF;}
</style>
<g>
	<path id="path14" class="st0" d="M199.9,447.4h-63.8v-96.9h63.8V362h-51v26.5h51V400h-51v36h51L199.9,447.4"/>
	<path id="path16" class="st0" d="M259.7,388.1h-0.6c-1.8-0.5-3.6-0.7-5.3-0.9c-1.7-0.2-3.7-0.3-6.1-0.3c-3.7,0-7.4,0.8-10.9,2.5
		c-3.6,1.6-6.9,3.8-10.1,6.5v51.6h-12.2v-72.7h12.2v10.8c4.8-3.9,9.1-6.7,12.9-8.3c3.7-1.6,7.5-2.5,11.4-2.5c2.1,0,3.6,0.1,4.6,0.2
		c0.9,0.1,2.4,0.3,4.3,0.6L259.7,388.1"/>
	<path id="path18" class="st0" d="M313.3,429.5v-20.2c-3.7,0.2-8.1,0.5-13.2,1c-5,0.5-9,1.1-12,1.9c-3.6,1-6.4,2.6-8.6,4.6
		s-3.3,5-3.3,8.7c0,4.2,1.3,7.3,3.7,9.4c2.6,2.1,6.4,3.2,11.5,3.2c4.3,0,8.2-0.8,11.8-2.5C307,433.9,310.3,431.9,313.3,429.5z
		 M325.5,447.4h-12.2v-7.7c-1.1,0.7-2.6,1.7-4.4,3.1c-1.8,1.4-3.6,2.4-5.4,3.2c-2,1-4.4,1.8-7,2.5c-2.6,0.6-5.7,1-9.3,1
		c-6.6,0-12.1-2.2-16.7-6.5c-4.6-4.4-6.8-9.8-6.8-16.6c0-5.5,1.2-9.9,3.6-13.4c2.4-3.4,5.7-6.1,10.1-8c4.5-1.9,9.8-3.3,16-4
		c6.2-0.7,12.9-1.2,20-1.5v-1.9c0-2.7-0.5-5.1-1.5-6.9c-1-1.8-2.4-3.3-4.2-4.3c-1.7-1-3.8-1.6-6.3-2c-2.5-0.4-5-0.5-7.7-0.5
		c-3.2,0-6.7,0.5-10.8,1.3c-3.9,0.8-8,2.1-12.2,3.6h-0.6v-12.4c2.4-0.6,5.8-1.4,10.4-2.2c4.5-0.8,8.9-1.2,13.3-1.2
		c5.1,0,9.6,0.5,13.4,1.3s7.1,2.3,9.8,4.3s4.8,4.6,6.3,7.7s2.2,7.1,2.2,11.8V447.4"/>
	<path id="path20" class="st0" d="M396.4,426.5c0,6.7-2.7,12.1-8.2,16.3c-5.5,4.3-12.9,6.4-22.5,6.4c-5.4,0-10.3-0.6-14.8-1.9
		s-8.3-2.6-11.3-4.2v-13.8h0.6c3.8,2.9,8.1,5.2,12.9,6.9c4.7,1.7,9.3,2.6,13.6,2.6c5.4,0,9.6-0.8,12.6-2.6c3-1.7,4.6-4.5,4.6-8.2
		c0-2.8-0.8-5-2.5-6.5c-1.6-1.5-4.8-2.7-9.5-3.7c-1.7-0.4-4-0.8-6.8-1.4c-2.8-0.5-5.4-1.1-7.7-1.7c-6.4-1.7-10.9-4.2-13.6-7.5
		s-4-7.3-4-12c0-3,0.6-5.8,1.8-8.5c1.3-2.6,3.1-5,5.7-7.1c2.5-2,5.6-3.6,9.3-4.8c3.7-1.2,7.9-1.8,12.6-1.8c4.4,0,8.8,0.5,13.2,1.5
		c4.5,1.1,8.1,2.4,11.1,3.8v13.1h-0.6c-3.1-2.3-6.9-4.3-11.4-5.8c-4.5-1.5-8.8-2.4-13.1-2.4c-4.5,0-8.2,0.8-11.3,2.6
		s-4.6,4.3-4.6,7.7c0,3,0.9,5.3,2.8,6.7c1.8,1.5,4.7,2.7,8.8,3.7c2.3,0.5,4.7,1,7.6,1.5c2.8,0.5,5.1,1,7,1.5
		c5.7,1.3,10,3.6,13.1,6.7C394.8,417,396.4,421.1,396.4,426.5"/>
	<path id="path22" class="st0" d="M515.5,447.4h-12.2V406c0-3.1-0.2-6.1-0.5-9c-0.3-2.9-0.9-5.2-1.8-6.9c-1-1.8-2.5-3.3-4.3-4.2
		c-1.8-0.9-4.6-1.5-8.1-1.5c-3.5,0-6.8,0.8-10.3,2.6c-3.5,1.7-6.8,3.9-10.3,6.6c0.1,1,0.3,2.2,0.4,3.5c0.1,1.4,0.1,2.6,0.1,3.9v46.5
		h-12.2V406c0-3.2-0.2-6.3-0.5-9.1c-0.3-2.9-0.9-5.2-1.8-6.9c-1-1.8-2.5-3.3-4.3-4.2c-1.8-0.9-4.6-1.4-8.1-1.4
		c-3.4,0-6.7,0.8-10,2.5c-3.4,1.6-6.7,3.7-10,6.3v54.2h-12.1v-72.7h12.2v8.1c3.8-3.2,7.7-5.7,11.4-7.4c3.8-1.7,7.8-2.6,12.1-2.6
		c4.9,0,9.1,1,12.6,3.1c3.5,2.1,6,4.9,7.7,8.7c4.9-4.2,9.5-7.2,13.5-9c4.1-1.8,8.5-2.7,13.1-2.7c8,0,13.9,2.5,17.7,7.3
		c3.8,4.8,5.7,11.6,5.7,20.2L515.5,447.4"/>
	<path id="path24" class="st0" d="M592.5,447.4h-12.2v-8c-4.1,3.3-8.1,5.7-11.9,7.5c-3.7,1.7-7.9,2.6-12.5,2.6
		c-7.7,0-13.6-2.4-17.9-7s-6.4-11.5-6.4-20.5v-47.2h12.2v41.4c0,3.6,0.2,6.8,0.5,9.5s1.1,4.8,2.2,6.7c1.2,1.9,2.7,3.3,4.6,4.2
		c1.8,0.9,4.6,1.3,8.1,1.3c3.2,0,6.7-0.8,10.4-2.5c3.7-1.6,7.3-3.7,10.5-6.3v-54.2h12.2L592.5,447.4"/>
	<path id="path26" class="st0" d="M663.9,426.5c0,6.7-2.7,12.1-8.2,16.3c-5.5,4.3-12.9,6.4-22.5,6.4c-5.4,0-10.3-0.6-14.8-1.9
		s-8.3-2.6-11.3-4.2v-13.8h0.6c3.8,2.9,8.1,5.2,12.9,6.9c4.7,1.7,9.3,2.6,13.6,2.6c5.4,0,9.6-0.8,12.6-2.6c3-1.7,4.6-4.5,4.6-8.2
		c0-2.8-0.8-5-2.5-6.5c-1.6-1.5-4.8-2.7-9.5-3.7c-1.7-0.4-4-0.8-6.8-1.4c-2.8-0.5-5.4-1.1-7.7-1.7c-6.4-1.7-10.9-4.2-13.6-7.5
		s-4-7.3-4-12c0-3,0.6-5.8,1.8-8.5c1.3-2.6,3.1-5,5.7-7.1c2.5-2,5.6-3.6,9.3-4.8c3.7-1.2,7.9-1.8,12.6-1.8c4.4,0,8.8,0.5,13.2,1.5
		c4.5,1.1,8.1,2.4,11.1,3.8v13.1h-0.6c-3.1-2.3-6.9-4.3-11.4-5.8c-4.5-1.5-8.8-2.4-13.1-2.4c-4.5,0-8.2,0.8-11.3,2.6
		c-3.1,1.7-4.6,4.3-4.6,7.7c0,3,0.9,5.3,2.8,6.7c1.8,1.5,4.7,2.7,8.8,3.7c2.3,0.5,4.7,1,7.6,1.5c2.8,0.5,5.1,1,7,1.5
		c5.7,1.3,10,3.6,13.1,6.7C662.4,417,663.9,421.1,663.9,426.5"/>
</g>
</svg>
