<?xml version="1.0" encoding="utf-8"?>
<!-- Generator: Adobe Illustrator 22.0.0, SVG Export Plug-In . SVG Version: 6.00 Build 0)  -->
<svg version="1.1" id="Layer_1" xmlns="http://www.w3.org/2000/svg" xmlns:xlink="http://www.w3.org/1999/xlink" x="0px" y="0px"
	 viewBox="0 0 800 800" style="enable-background:new 0 0 800 800;" xml:space="preserve">
<style type="text/css">
	.st0{fill:#F9E419;}
</style>
<g>
	<path id="path32" class="st0" d="M399.8,15.7l12.4,38.6h40.3l-32.7,23.8l12.7,38.6l-32.7-24.1l-32.7,24.1l12.7-38.6l-33.1-23.8
		h40.6L399.8,15.7"/>
	<path id="path34" class="st0" d="M232.8,60.5l12.4,38.6h40.3l-32.7,23.8l12.7,38.6l-32.7-24.1L200,161.5l12.7-38.6l-33.1-23.8h40.6
		L232.8,60.5"/>
	<path id="path36" class="st0" d="M110.5,182.5l12.4,38.6h40.6l-33.1,23.8l12.7,38.6l-32.7-24.1l-32.7,24.1l12.7-38.6l-33.1-23.8
		h40.6L110.5,182.5"/>
	<path id="path38" class="st0" d="M66,349.5l12.4,38.6h40.6l-32.7,23.8l12.7,38.6l-32.7-24.1l-32.7,24.1l12.7-38.6l-33.1-23.8H54
		L66,349.5"/>
	<path id="path40" class="st0" d="M110.5,516.3l12.4,38.6h40.6l-33.1,23.8l12.7,38.6l-32.7-24.1l-32.7,24.1l12.7-38.6l-33.1-23.8
		l40.6,0.3L110.5,516.3"/>
	<path id="path42" class="st0" d="M232.8,638.5l12.4,38.6l40.6-0.3l-33.1,23.8l12.7,38.6L232.8,715L200,739.1l12.7-38.6l-33.1-23.8
		l40.6,0.3L232.8,638.5"/>
	<path id="path44" class="st0" d="M399.8,683.3l12.4,38.6h40.6l-33.1,23.8l12.7,38.6l-32.7-24.1l-32.7,24.1l12.7-38.6l-33.1-23.8
		h40.6L399.8,683.3"/>
	<path id="path46" class="st0" d="M566.5,638.5l12.4,38.6l40.6-0.3l-33.1,23.8l12.7,38.6L566.5,715l-32.7,24.1l12.7-38.6l-33.1-23.8
		l40.6,0.3L566.5,638.5"/>
	<path id="path48" class="st0" d="M688.8,516.3l12.4,38.6h40.6l-33.1,23.8l12.7,38.6l-32.7-24.1l-32.7,24.1l12.7-38.6l-33.1-23.8
		h40.6L688.8,516.3"/>
	<path id="path50" class="st0" d="M733.6,349.5l12.4,38.6h40.6l-33.1,23.8l12.7,38.6l-32.7-24.1l-32.7,24.1l12.7-38.6l-33.1-23.8
		h40.6L733.6,349.5"/>
	<path id="path52" class="st0" d="M688.8,182.5l12.4,38.6h40.6l-33.1,23.8l12.7,38.6l-32.7-24.1l-32.7,24.1l12.7-38.6l-33.1-23.8
		h40.6L688.8,182.5"/>
	<path id="path54" class="st0" d="M566.5,60.5l12.4,38.6h40.3l-33.1,23.8l12.7,38.6l-32.7-24.1l-32.7,24.1l12.7-38.6l-33.1-23.8
		h40.6L566.5,60.5"/>
</g>
</svg>
